# xmcd CD database file
#
# Track frame offsets:
#	150
#	8007
#	31500
#	48795
#	64413
#	86285
#	105378
#	126835
#	144558
#	158607
#	177635
#	194618
#
# Disc length: 2914 seconds
#
# Revision: 2
# Processed by: cddbd v1.5.2PL0 Copyright (c) Steve Scherf et al.
# Submitted via: CDex 1.70beta3
#
DISCID=930b600c
DTITLE=中納良恵 - ソレイユ
DYEAR=2007
DGENRE=J-POP
TTITLE0=
TTITLE1=幸福の会話
TTITLE2=ソレイユ
TTITLE3=パステル
TTITLE4=あくび
TTITLE5=しずく
TTITLE6=no place to hide
TTITLE7=カーチェイス
TTITLE8=空の記憶
TTITLE9=無題4
TTITLE10=ソラノキオク
TTITLE11=夢
EXTD=YEAR: 2007
EXTT0=
EXTT1=
EXTT2=
EXTT3=
EXTT4=
EXTT5=
EXTT6=
EXTT7=
EXTT8=
EXTT9=
EXTT10=
EXTT11=
PLAYORDER=
